<svg version="1.1" xmlns="http://www.w3.org/2000/svg" viewBox="0 0 2679.955557081426 3752.2222222222135" width="5359.911114162852" height="7504.444444444427">
  <!-- svg-source:excalidraw -->
    <defs>
      <style class="style-fonts">
        @font-face { font-family: "Virgil"; src:
        url("https://excalidraw.com/Virgil.woff2"); } @font-face
        { font-family: "Cascadia"; src:
        url("https://excalidraw.com/Cascadia.woff2"); }
        @font-face { font-family: "Assistant"; src:
        url("https://excalidraw.com/Assistant-Regular.woff2"); }
      </style>
      </defs>
      <rect x="0" y="0" width="2679.955557081426" height="3752.2222222222135" fill="#ffffff">
    </rect>
    <g stroke-linecap="round" transform="translate(245 226.94444444444412) rotate(0 171 179.44444444444446)">
      <path d="M32 0 C142.49 -0.3, 250.76 -2.4, 310 0 M32 0 C90.62 0.76, 149.26 0.5, 310 0 M310 0 C329.61 0.08, 341.62 9.83, 342 32 M310 0 C331.47 1.31, 343.52 12.45, 342 32 M342 32 C339.76 134.37, 341.55 236.49, 342 326.89 M342 32 C342.28 126.38, 343.43 220.34, 342 326.89 M342 326.89 C343.17 349.45, 330.63 359.22, 310 358.89 M342 326.89 C343.52 347.45, 329.93 356.73, 310 358.89 M310 358.89 C224.84 356.93, 138.44 357.42, 32 358.89 M310 358.89 C226.03 357.89, 142.84 357.01, 32 358.89 M32 358.89 C10.33 358.92, 1.45 349.55, 0 326.89 M32 358.89 C11 358.74, 0.72 348.24, 0 326.89 M0 326.89 C1.63 258.24, 1.75 188.6, 0 32 M0 326.89 C1.93 231.4, 2.34 135.68, 0 32 M0 32 C0.57 9.73, 11.62 -1.77, 32 0 M0 32 C-1.99 9.61, 9.29 0.52, 32 0" stroke="#1e1e1e" stroke-width="2" fill="none">
    </path>
  </g>
  <g transform="translate(350 173.94444444444412) rotate(0 45.266666412353516 11.5)">
    <text x="0" y="18.400390625" font-family="Helvetica, Segoe UI Emoji" font-size="20px" fill="#2f9e44" text-anchor="start" style="white-space: pre;" direction="ltr" dominant-baseline="alphabetic">
      / or /home
    </text>
  </g>
  <g stroke-linecap="round" transform="translate(323.66666666666674 234.94444444444412) rotate(0 93.66666666666663 34.49999999999997)">
    <path d="M17.25 0 C74.52 -2.81, 135.31 -2.75, 170.08 0 M17.25 0 C57.53 -0.08, 98.24 -1.43, 170.08 0 M170.08 0 C180.58 -1.51, 187.09 6.57, 187.33 17.25 M170.08 0 C179.51 -0.31, 186.45 4.09, 187.33 17.25 M187.33 17.25 C187.26 28.95, 185.36 37.9, 187.33 51.75 M187.33 17.25 C187.44 31.95, 186.58 45.13, 187.33 51.75 M187.33 51.75 C187.39 64.56, 183.19 67.61, 170.08 69 M187.33 51.75 C186.12 63.06, 180.48 70.86, 170.08 69 M170.08 69 C125.46 71.8, 78.25 68.46, 17.25 69 M170.08 69 C124.92 68.66, 78.77 67.94, 17.25 69 M17.25 69 C4.3 70.9, 0.29 62.94, 0 51.75 M17.25 69 C4.66 70.65, 0.87 62.25, 0 51.75 M0 51.75 C1.07 41.79, -2.04 31.65, 0 17.25 M0 51.75 C-1.05 43.77, 0.06 35.2, 0 17.25 M0 17.25 C1.06 4.77, 3.79 1.81, 17.25 0 M0 17.25 C0.76 7.98, 6.63 -1.31, 17.25 0" stroke="#f08c00" stroke-width="2" fill="none">
  </path>
</g>
<g transform="translate(384.5999997456869 257.9444444444441) rotate(0 32.733333587646484 11.5)">
  <text x="32.733333587646484" y="18.400390625" font-family="Helvetica, Segoe UI Emoji" font-size="20px" fill="#f08c00" text-anchor="middle" style="white-space: pre;" direction="ltr" dominant-baseline="alphabetic">
    Header
  </text>
</g>
<g stroke-linecap="round" transform="translate(276.44444444444457 332.0555555555552) rotate(0 135 110.5)">
  <path d="M32 0 C93.57 0.65, 153.06 2.88, 238 0 M32 0 C114.86 2.37, 196.85 1.2, 238 0 M238 0 C258.56 0.87, 271.65 10.25, 270 32 M238 0 C258.3 -1.06, 271.51 11.3, 270 32 M270 32 C268.44 79.46, 270.3 127.54, 270 189 M270 32 C270.79 90.94, 269.89 150.35, 270 189 M270 189 C270.64 208.41, 259.39 219.32, 238 221 M270 189 C268.92 210.1, 258.52 222.32, 238 221 M238 221 C184.01 221.93, 130.17 220.35, 32 221 M238 221 C177.86 223.48, 118.81 221.91, 32 221 M32 221 C12.13 220.41, -0.72 212.23, 0 189 M32 221 C11.77 221.17, 1.15 210.66, 0 189 M0 189 C-1.3 146.76, 0.25 100.69, 0 32 M0 189 C-0.63 136.4, -2.08 83.58, 0 32 M0 32 C0.46 9.18, 11.23 -1.91, 32 0 M0 32 C0.98 9.16, 10.21 -2.29, 32 0" stroke="#f08c00" stroke-width="2" fill="none">
</path>
</g>
<g transform="translate(367.3777787950305 431.0555555555552) rotate(0 44.06666564941406 11.5)">
  <text x="44.06666564941406" y="18.400390625" font-family="Helvetica, Segoe UI Emoji" font-size="20px" fill="#f08c00" text-anchor="middle" style="white-space: pre;" direction="ltr" dominant-baseline="alphabetic">
    AllArticles
  </text>
</g>
<g transform="translate(10 376.9444444444441) rotate(0 90.48332977294922 34.5)">
  <text x="0" y="18.400390625" font-family="Helvetica, Segoe UI Emoji" font-size="20px" fill="#1e1e1e" text-anchor="start" style="white-space: pre;" direction="ltr" dominant-baseline="alphabetic">
    styling of each item
  </text>
  <text x="0" y="41.400390625" font-family="Helvetica, Segoe UI Emoji" font-size="20px" fill="#1e1e1e" text-anchor="start" style="white-space: pre;" direction="ltr" dominant-baseline="alphabetic">
    will be handled by a
  </text>
  <text x="0" y="64.400390625" font-family="Helvetica, Segoe UI Emoji" font-size="20px" fill="#1e1e1e" text-anchor="start" style="white-space: pre;" direction="ltr" dominant-baseline="alphabetic">
    className
  </text>
</g>
<g stroke-linecap="round" transform="translate(212.9444444444445 698.9999999999998) rotate(0 174.49999999999997 221.5)">
  <path d="M32 0 C99.95 3.22, 165.46 0.54, 317 0 M32 0 C90.41 0.62, 148.76 0.65, 317 0 M317 0 C337.5 0.18, 349.58 9.97, 349 32 M317 0 C337.25 -0.1, 347.69 8.38, 349 32 M349 32 C348.15 158.1, 348.83 283.03, 349 411 M349 32 C347.83 180.3, 348.47 330.13, 349 411 M349 411 C349.99 433.12, 337.09 441.05, 317 443 M349 411 C346.97 431.81, 337.45 442.82, 317 443 M317 443 C230.74 442.9, 140.76 441.16, 32 443 M317 443 C229.4 442.11, 141.22 442.06, 32 443 M32 443 C9.46 443.08, 0.54 430.87, 0 411 M32 443 C8.45 442.11, 0.94 430.35, 0 411 M0 411 C-2.44 279.46, -1.37 144.49, 0 32 M0 411 C-1.55 291.98, -2.52 174.09, 0 32 M0 32 C-0.31 11.45, 10.93 -0.85, 32 0 M0 32 C0.95 9.92, 11.23 0, 32 0" stroke="#1e1e1e" stroke-width="2" fill="none">
</path>
</g>
<g transform="translate(288.2222222222222 641.7777777777776) rotate(0 108.28333330154419 11.5)">
  <text x="0" y="18.400390625" font-family="Helvetica, Segoe UI Emoji" font-size="20px" fill="#2f9e44" text-anchor="start" style="white-space: pre;" direction="ltr" dominant-baseline="alphabetic">
    /articles/:article_id
  </text>
</g>
<g stroke-linecap="round" transform="translate(308.4444444444445 714.4999999999998) rotate(0 73.00000000000003 33.5)">
  <path d="M16.75 0 C59.82 0.23, 106.11 0.16, 129.25 0 M16.75 0 C50.61 -0.01, 85.59 -0.45, 129.25 0 M129.25 0 C139.48 -0.08, 144.86 3.6, 146 16.75 M129.25 0 C141.16 -0.43, 146.08 4.76, 146 16.75 M146 16.75 C147.92 26.57, 144.25 36.98, 146 50.25 M146 16.75 C146.7 24.26, 145.58 30.02, 146 50.25 M146 50.25 C144.24 60.96, 139.65 66.84, 129.25 67 M146 50.25 C146.18 61.88, 138.8 69.25, 129.25 67 M129.25 67 C85.21 64.94, 39.57 68.34, 16.75 67 M129.25 67 C88.65 67.58, 49.52 66.81, 16.75 67 M16.75 67 C3.65 66.23, 0.82 59.69, 0 50.25 M16.75 67 C6.74 68.69, 0.23 59.96, 0 50.25 M0 50.25 C0.18 38.81, -1.25 25.42, 0 16.75 M0 50.25 C0.11 42.3, 0.39 33.15, 0 16.75 M0 16.75 C0.83 4.94, 6.07 0, 16.75 0 M0 16.75 C-0.76 3.47, 4.44 2.13, 16.75 0" stroke="#1e1e1e" stroke-width="2" fill="none">
</path>
</g>
<g transform="translate(339.4444444444445 734.4999999999998) rotate(0 32.733333587646484 11.5)">
  <text x="0" y="18.400390625" font-family="Helvetica, Segoe UI Emoji" font-size="20px" fill="#f08c00" text-anchor="start" style="white-space: pre;" direction="ltr" dominant-baseline="alphabetic">
    Header
  </text>
</g>
<g stroke-linecap="round" transform="translate(825.5555555555552 202.49999999999966) rotate(0 306.2222222222224 64.77777777777779)">
  <path d="M32 0 C205.54 -1.45, 378.52 -1.5, 580.44 0 M32 0 C224.61 2.16, 416.58 2.16, 580.44 0 M580.44 0 C600.03 1.29, 612.61 12.63, 612.44 32 M580.44 0 C602.84 2.07, 614.45 8.97, 612.44 32 M612.44 32 C613.17 47.82, 613.92 60.18, 612.44 97.56 M612.44 32 C612.95 51.95, 612.1 73.42, 612.44 97.56 M612.44 97.56 C612.03 120.87, 602.19 128.59, 580.44 129.56 M612.44 97.56 C613.66 119.61, 603.45 129.7, 580.44 129.56 M580.44 129.56 C394.13 132.47, 207.55 131.77, 32 129.56 M580.44 129.56 C414.59 130.74, 249.01 130.86, 32 129.56 M32 129.56 C10.85 127.87, -1.45 119.92, 0 97.56 M32 129.56 C8.78 131.63, 1.41 120.81, 0 97.56 M0 97.56 C-1.85 81.44, 0.22 66.44, 0 32 M0 97.56 C-1.5 79.96, -1.2 62.91, 0 32 M0 32 C1.8 12.22, 9.8 -1.99, 32 0 M0 32 C-1.72 11.65, 10.83 0.99, 32 0" stroke="#1e1e1e" stroke-width="2" fill="none">
</path>
</g>
<g transform="translate(1109.5944453345403 255.77777777777743) rotate(0 22.183332443237305 11.5)">
  <text x="22.183332443237305" y="18.400390625" font-family="Helvetica, Segoe UI Emoji" font-size="20px" fill="#f08c00" text-anchor="middle" style="white-space: pre;" direction="ltr" dominant-baseline="alphabetic">
    {title}
  </text>
</g>
<g transform="translate(1004.4444444444443 143.38888888888857) rotate(0 32.733333587646484 11.5)">
  <text x="0" y="18.400390625" font-family="Helvetica, Segoe UI Emoji" font-size="20px" fill="#f08c00" text-anchor="start" style="white-space: pre;" direction="ltr" dominant-baseline="alphabetic">
    Header
  </text>
</g>
<g transform="translate(997 374.16666666666634) rotate(0 47.099998474121094 11.5)">
  <text x="0" y="18.400390625" font-family="Helvetica, Segoe UI Emoji" font-size="20px" fill="#f08c00" text-anchor="start" style="white-space: pre;" direction="ltr" dominant-baseline="alphabetic">
    SearchBar
  </text>
</g>
<g stroke-linecap="round">
  <g transform="translate(193 394.5171461744663) rotate(0 37.722222222222314 0.04019846148059969)">
    <path d="M-0.29 0.56 C12.24 0.61, 63.25 -0.36, 76.05 -0.32 M1.76 -0.2 C14.1 0.08, 62.99 1.17, 75.43 1" stroke="#1e1e1e" stroke-width="2" fill="none">
  </path>
</g>
<g transform="translate(193 394.5171461744663) rotate(0 37.722222222222314 0.04019846148059969)">
  <path d="M51.88 9.39 C61.66 7.33, 68.87 5.01, 75.43 1 M51.88 9.39 C60.94 6.5, 69.53 4.12, 75.43 1" stroke="#1e1e1e" stroke-width="2" fill="none">
</path>
</g>
<g transform="translate(193 394.5171461744663) rotate(0 37.722222222222314 0.04019846148059969)">
  <path d="M51.99 -7.71 C61.64 -3.38, 68.81 0.71, 75.43 1 M51.99 -7.71 C60.93 -4.51, 69.48 -0.8, 75.43 1" stroke="#1e1e1e" stroke-width="2" fill="none">
</path>
</g>
</g>
<mask>
</mask>
<g stroke-linecap="round" transform="translate(782.1111111111111 439.16666666666634) rotate(0 323.7777777777777 67.00000000000003)">
  <path d="M32 0 C177.8 -1.1, 321.75 -0.76, 615.56 0 M32 0 C175.85 1.55, 320.08 1.05, 615.56 0 M615.56 0 C638.27 1.86, 649.39 11.66, 647.56 32 M615.56 0 C634.74 -0.12, 645.27 12.26, 647.56 32 M647.56 32 C647.71 47.82, 648.75 59.75, 647.56 102 M647.56 32 C648.32 50.19, 647.93 67.37, 647.56 102 M647.56 102 C648.14 121.51, 638.52 133.98, 615.56 134 M647.56 102 C645.45 124.17, 638.74 133.66, 615.56 134 M615.56 134 C488.92 132.7, 361.52 131.63, 32 134 M615.56 134 C446.38 135.95, 276.32 135.66, 32 134 M32 134 C10.5 134.61, 0.94 123.44, 0 102 M32 134 C10.64 135.87, -2.17 123.17, 0 102 M0 102 C-0.08 81.78, -0.33 61.91, 0 32 M0 102 C-0.81 85.06, -0.06 70.54, 0 32 M0 32 C0.04 8.7, 9.67 0.81, 32 0 M0 32 C2.13 9.4, 10.15 -0.75, 32 0" stroke="#1e1e1e" stroke-width="2" fill="none">
</path>
</g>
<g stroke-linecap="round" transform="translate(1243.1111111111109 222.72222222222203) rotate(0 82.5 43.1111111111111)">
  <path d="M21.56 0 C63.85 -1.13, 108.28 0.29, 143.44 0 M21.56 0 C63.14 1.26, 103.62 0.3, 143.44 0 M143.44 0 C158.05 -1.66, 166.7 6.19, 165 21.56 M143.44 0 C158.31 0.81, 165.73 6.74, 165 21.56 M165 21.56 C166.67 37.85, 163.35 50.08, 165 64.67 M165 21.56 C165.32 30.87, 165.85 40.09, 165 64.67 M165 64.67 C163.35 77.89, 157.97 87.97, 143.44 86.22 M165 64.67 C164.47 76.9, 157.21 85.69, 143.44 86.22 M143.44 86.22 C112.28 85.31, 76.52 85.11, 21.56 86.22 M143.44 86.22 C108.9 86.13, 75.27 85.82, 21.56 86.22 M21.56 86.22 C8.49 87.93, 1.97 77.17, 0 64.67 M21.56 86.22 C9.11 86.25, 0.34 80.41, 0 64.67 M0 64.67 C-1.21 57.4, 2.05 46.55, 0 21.56 M0 64.67 C1.1 48.78, 1.11 32.75, 0 21.56 M0 21.56 C-1.83 5.24, 7.87 1.71, 21.56 0 M0 21.56 C1.82 7.95, 9.11 -0.05, 21.56 0" stroke="#1e1e1e" stroke-width="2" fill="none">
</path>
</g>
<g transform="translate(1301.227777904934 254.33333333333312) rotate(0 24.383333206176758 11.5)">
  <text x="24.383333206176758" y="18.400390625" font-family="Helvetica, Segoe UI Emoji" font-size="20px" fill="#f08c00" text-anchor="middle" style="white-space: pre;" direction="ltr" dominant-baseline="alphabetic">
    Login
  </text>
</g>
<g stroke-linecap="round" transform="translate(831.1111111111111 448.8333333333331) rotate(0 186.83333333333337 48.99999999999994)">
  <path d="M24.5 0 C96.17 -0.54, 167.71 -0.94, 349.17 0 M24.5 0 C115.42 1.74, 207.23 1.52, 349.17 0 M349.17 0 C364.81 1.77, 374.38 9.45, 373.67 24.5 M349.17 0 C367.52 0.58, 375.46 10.25, 373.67 24.5 M373.67 24.5 C373.23 43.18, 375.6 58.4, 373.67 73.5 M373.67 24.5 C373.44 41.97, 374.39 59.74, 373.67 73.5 M373.67 73.5 C375.54 90.98, 363.81 96.07, 349.17 98 M373.67 73.5 C372.8 91.04, 363.59 99.48, 349.17 98 M349.17 98 C219.79 97.19, 91.03 96, 24.5 98 M349.17 98 C271.21 99.19, 193.75 98.89, 24.5 98 M24.5 98 C7.76 98.46, 0.07 91.82, 0 73.5 M24.5 98 C6.43 96.98, 0 92.02, 0 73.5 M0 73.5 C0.21 61.96, 0.57 46.63, 0 24.5 M0 73.5 C-0.79 59.78, 0.53 46.31, 0 24.5 M0 24.5 C-1.08 6.53, 8.72 -1.83, 24.5 0 M0 24.5 C-1.73 7, 8.49 2.07, 24.5 0" stroke="#1e1e1e" stroke-width="2" fill="none">
</path>
</g>
<g transform="translate(841.7611100938584 474.83333333333303) rotate(0 176.18333435058594 23)">
  <text x="176.18333435058594" y="18.400390625" font-family="Helvetica, Segoe UI Emoji" font-size="20px" fill="#1e1e1e" text-anchor="middle" style="white-space: pre;" direction="ltr" dominant-baseline="alphabetic">
    other stuff will be here later (need more
  </text>
  <text x="176.18333435058594" y="41.400390625" font-family="Helvetica, Segoe UI Emoji" font-size="20px" fill="#1e1e1e" text-anchor="middle" style="white-space: pre;" direction="ltr" dominant-baseline="alphabetic">
    api endpoints)
  </text>
</g>
<g stroke-linecap="round" transform="translate(803.3333333333333 712.4999999999997) rotate(0 282 219.50000000000006)">
  <path d="M32 0 C205.23 1.76, 379.14 0.65, 532 0 M32 0 C139.29 0.73, 247.04 1.21, 532 0 M532 0 C553.34 1.57, 563.19 9.28, 564 32 M532 0 C552.3 0.21, 562.83 12.34, 564 32 M564 32 C564.62 156.42, 565.31 279.63, 564 407 M564 32 C565.01 144.49, 565.92 256.65, 564 407 M564 407 C562.29 426.54, 553.01 438.34, 532 439 M564 407 C563.55 429.9, 554.95 438.67, 532 439 M532 439 C387.95 439.4, 244.87 439.5, 32 439 M532 439 C428.77 437.6, 325.81 437.54, 32 439 M32 439 C11.38 437.37, -0.29 428.37, 0 407 M32 439 C9.33 441.26, 0.53 428.21, 0 407 M0 407 C1.53 274.52, 2.57 140.91, 0 32 M0 407 C-1.39 330.2, -1.76 253.98, 0 32 M0 32 C1.46 8.87, 9.32 -0.73, 32 0 M0 32 C-0.4 12.57, 9.29 -0.62, 32 0" stroke="#1e1e1e" stroke-width="2" fill="none">
</path>
</g>
<g transform="translate(1028.666666666667 644.944444444444) rotate(0 43.483333587646484 11.5)">
  <text x="0" y="18.400390625" font-family="Helvetica, Segoe UI Emoji" font-size="20px" fill="#f08c00" text-anchor="start" style="white-space: pre;" direction="ltr" dominant-baseline="alphabetic">
    ArticleList
  </text>
</g>
<g stroke-linecap="round" transform="translate(855.4444444444443 744.4999999999997) rotate(0 228.5 43.5)">
  <path d="M21.75 0 C186.92 -2.97, 352.16 -1.13, 435.25 0 M21.75 0 C142.52 -1.62, 263.48 -2.14, 435.25 0 M435.25 0 C447.8 1.62, 458.69 7.75, 457 21.75 M435.25 0 C450.2 1.48, 455.18 6.47, 457 21.75 M457 21.75 C458.06 33.76, 458.03 48.06, 457 65.25 M457 21.75 C457.54 38.89, 457.57 55.06, 457 65.25 M457 65.25 C458.93 78.44, 451.04 87.33, 435.25 87 M457 65.25 C456.25 80.57, 449.4 84.74, 435.25 87 M435.25 87 C315.41 86.03, 197.11 85.41, 21.75 87 M435.25 87 C351.21 87.22, 267.28 88.21, 21.75 87 M21.75 87 C6.17 85.81, 0.95 79.03, 0 65.25 M21.75 87 C7.27 88.58, 1.24 80.99, 0 65.25 M0 65.25 C-0.43 55.83, -1.64 42.52, 0 21.75 M0 65.25 C-0.6 49.13, -0.52 33.45, 0 21.75 M0 21.75 C1.57 6.63, 5.47 0.69, 21.75 0 M0 21.75 C1.85 5.93, 5.1 0.65, 21.75 0" stroke="#f08c00" stroke-width="2" fill="none">
</path>
</g>
<g transform="translate(1036.8444459703232 776.4999999999997) rotate(0 47.099998474121094 11.5)">
  <text x="47.099998474121094" y="18.400390625" font-family="Helvetica, Segoe UI Emoji" font-size="20px" fill="#f08c00" text-anchor="middle" style="white-space: pre;" direction="ltr" dominant-baseline="alphabetic">
    SearchBar
  </text>
</g>
<g stroke-linecap="round" transform="translate(858.4447031605162 1244.333333333333) rotate(0 162.44444444444446 177.72222222222229)">
  <path d="M32 0 C125.2 -0.87, 218.69 0.27, 292.89 0 M32 0 C112.14 -0.52, 191.1 -0.25, 292.89 0 M292.89 0 C313.49 -1.67, 324.31 10.36, 324.89 32 M292.89 0 C314.53 -2.24, 323.07 12.2, 324.89 32 M324.89 32 C325.55 109.03, 326 185.84, 324.89 323.44 M324.89 32 C326.28 121.84, 325.56 211.98, 324.89 323.44 M324.89 323.44 C323.06 344.45, 314.59 354.4, 292.89 355.44 M324.89 323.44 C325.49 343.36, 313 354.89, 292.89 355.44 M292.89 355.44 C229.74 355.1, 165.57 353.84, 32 355.44 M292.89 355.44 C209.48 353.42, 126.1 352.95, 32 355.44 M32 355.44 C9.1 354.83, 0.01 344.5, 0 323.44 M32 355.44 C10.23 355.49, -0.81 344.97, 0 323.44 M0 323.44 C-0.6 232.42, 0.64 139.99, 0 32 M0 323.44 C0.34 238.78, 1.22 152.74, 0 32 M0 32 C1.6 10.38, 8.9 -1.19, 32 0 M0 32 C0.55 10.16, 10.85 -2.14, 32 0" stroke="#1e1e1e" stroke-width="4" fill="none">
</path>
</g>
<g transform="translate(899.4447031605162 1250.6666666666663) rotate(0 117.56666564941406 11.5)">
  <text x="0" y="18.400390625" font-family="Helvetica, Segoe UI Emoji" font-size="20px" fill="#1e1e1e" text-anchor="start" style="white-space: pre;" direction="ltr" dominant-baseline="alphabetic">
    {topic} {votes} vote buttons
  </text>
</g>
<g stroke-linecap="round">
  <g transform="translate(850.6669253827383 1321.6666666666665) rotate(0 166.66666666666663 -0.5555555555556566)">
    <path d="M0.99 0.06 C56.41 0.09, 277.19 -0.54, 332.7 -0.68 M0.04 -0.95 C55.86 -1.22, 279.48 -2.86, 335.08 -2.58" stroke="#1e1e1e" stroke-width="4" fill="none">
  </path>
</g>
</g>
<mask>
</mask>
<g transform="translate(918.3335920494051 1344.5555555555552) rotate(0 33.91666793823242 57.5)">
  <text x="0" y="18.400390625" font-family="Helvetica, Segoe UI Emoji" font-size="20px" fill="#1e1e1e" text-anchor="start" style="white-space: pre;" direction="ltr" dominant-baseline="alphabetic">
    {title}
  </text>
  <text x="0" y="41.400390625" font-family="Helvetica, Segoe UI Emoji" font-size="20px" fill="#1e1e1e" text-anchor="start" style="white-space: pre;" direction="ltr" dominant-baseline="alphabetic">
</text>
<text x="0" y="64.400390625" font-family="Helvetica, Segoe UI Emoji" font-size="20px" fill="#1e1e1e" text-anchor="start" style="white-space: pre;" direction="ltr" dominant-baseline="alphabetic">
  {image}
</text>
<text x="0" y="87.400390625" font-family="Helvetica, Segoe UI Emoji" font-size="20px" fill="#1e1e1e" text-anchor="start" style="white-space: pre;" direction="ltr" dominant-baseline="alphabetic">
</text>
<text x="0" y="110.400390625" font-family="Helvetica, Segoe UI Emoji" font-size="20px" fill="#1e1e1e" text-anchor="start" style="white-space: pre;" direction="ltr" dominant-baseline="alphabetic">
  {body}
</text>
</g>
<g stroke-linecap="round" transform="translate(887.4447031605159 1481.888888888889) rotate(0 128.83333333333337 45.5)">
  <path d="M22.75 0 C75.66 -1.61, 128.68 -1.75, 234.92 0 M22.75 0 C68.77 -0.57, 113.85 0.87, 234.92 0 M234.92 0 C249.36 1.15, 257.28 6.8, 257.67 22.75 M234.92 0 C250.21 -0.21, 257.58 7.81, 257.67 22.75 M257.67 22.75 C256.33 37.36, 256.01 54.05, 257.67 68.25 M257.67 22.75 C258.01 35.04, 257.22 48.32, 257.67 68.25 M257.67 68.25 C256.53 81.53, 249.22 91.37, 234.92 91 M257.67 68.25 C258.46 82.8, 249.06 91.44, 234.92 91 M234.92 91 C178.68 90.23, 122.08 89.34, 22.75 91 M234.92 91 C177.65 90.76, 120.4 90.81, 22.75 91 M22.75 91 C7.83 90.23, 1.41 81.49, 0 68.25 M22.75 91 C7.62 90.69, -2.09 83.25, 0 68.25 M0 68.25 C1.94 57.48, -0.02 45.28, 0 22.75 M0 68.25 C0.64 55.03, 0.48 41.32, 0 22.75 M0 22.75 C-1.5 6.42, 6.19 -1.52, 22.75 0 M0 22.75 C0.09 8.6, 7.1 1.49, 22.75 0" stroke="#f08c00" stroke-width="4" fill="none">
</path>
</g>
<g transform="translate(974.0280364938494 1515.888888888889) rotate(0 42.25 11.5)">
  <text x="42.25" y="18.400390625" font-family="Helvetica, Segoe UI Emoji" font-size="20px" fill="#f08c00" text-anchor="middle" style="white-space: pre;" direction="ltr" dominant-baseline="alphabetic">
    Paginator
  </text>
</g>
<g transform="translate(958 1192.9444444444441) rotate(359.9625523548427 66.01666641235352 11.5)">
  <text x="0" y="18.400390625" font-family="Helvetica, Segoe UI Emoji" font-size="20px" fill="#f08c00" text-anchor="start" style="white-space: pre;" direction="ltr" dominant-baseline="alphabetic">
    Article
  </text>
</g>
<g transform="translate(1357.9999999999998 2364.2777777777774) rotate(0 210.39999389648438 34.5)">
  <text x="0" y="18.400390625" font-family="Helvetica, Segoe UI Emoji" font-size="20px" fill="#1e1e1e" text-anchor="start" style="white-space: pre;" direction="ltr" dominant-baseline="alphabetic">
    takes props page: Number, data: Object,
  </text>
  <text x="0" y="41.400390625" font-family="Helvetica, Segoe UI Emoji" font-size="20px" fill="#1e1e1e" text-anchor="start" style="white-space: pre;" direction="ltr" dominant-baseline="alphabetic">
    itemComponent: react component with its own
  </text>
  <text x="0" y="64.400390625" font-family="Helvetica, Segoe UI Emoji" font-size="20px" fill="#1e1e1e" text-anchor="start" style="white-space: pre;" direction="ltr" dominant-baseline="alphabetic">
    data prop
  </text>
</g>
<g transform="translate(1344.8888888888891 1447.2777777777774) rotate(0 124 11.5)">
  <text x="0" y="18.400390625" font-family="Helvetica, Segoe UI Emoji" font-size="20px" fill="#1e1e1e" text-anchor="start" style="white-space: pre;" direction="ltr" dominant-baseline="alphabetic">
    (taking Comment as a prop)
  </text>
</g>
<g stroke-linecap="round" transform="translate(232.4444444444445 796.4999999999998) rotate(0 156.00000000000003 160.5)">
  <path d="M32 0 C100.52 1.97, 170.64 1.23, 280 0 M32 0 C120.41 0.31, 208.62 1.11, 280 0 M280 0 C301.08 0.54, 312.63 12.46, 312 32 M280 0 C302.68 0.07, 312.26 12.34, 312 32 M312 32 C314.13 98.77, 312.84 162.87, 312 289 M312 32 C310.9 107.39, 310.57 180.72, 312 289 M312 289 C311.16 310.24, 302.73 319.65, 280 321 M312 289 C309.87 310.25, 300.16 322.7, 280 321 M280 321 C195.86 319.93, 112.27 320.11, 32 321 M280 321 C197.12 322.46, 114.1 321.52, 32 321 M32 321 C10.5 319.12, -1.33 311.36, 0 289 M32 321 C10.12 321.12, 1.88 311.22, 0 289 M0 289 C0.61 233.23, 1.07 178.92, 0 32 M0 289 C-0.56 187.79, -0.26 86.85, 0 32 M0 32 C-1.63 12.24, 10.53 -1.9, 32 0 M0 32 C2.14 9.79, 8.57 0.19, 32 0" stroke="#1e1e1e" stroke-width="4" fill="none">
</path>
</g>
<g transform="translate(348.4444444444445 815.4999999999998) rotate(0 28.016666412353516 11.5)">
  <text x="0" y="18.400390625" font-family="Helvetica, Segoe UI Emoji" font-size="20px" fill="#f08c00" text-anchor="start" style="white-space: pre;" direction="ltr" dominant-baseline="alphabetic">
    Article
  </text>
</g>
<g stroke-linecap="round" transform="translate(858.333333333333 848.4999999999995) rotate(0 226.94444444444434 137.5)">
  <path d="M32 0 C123.24 -0.8, 215.85 -1.69, 421.89 0 M32 0 C172.72 0.93, 313.48 1.36, 421.89 0 M421.89 0 C444.82 0.74, 455.38 9.7, 453.89 32 M421.89 0 C444.11 -1.71, 454.45 10.63, 453.89 32 M453.89 32 C454.76 99.06, 454.39 166.06, 453.89 243 M453.89 32 C455.87 75.01, 454.38 116.46, 453.89 243 M453.89 243 C455.56 265.33, 444.32 276.06, 421.89 275 M453.89 243 C452.24 263.82, 441.07 274.33, 421.89 275 M421.89 275 C328.88 275.4, 235.93 276.11, 32 275 M421.89 275 C289.12 273.59, 156.03 273.89, 32 275 M32 275 C9.46 276.84, -1.37 264.63, 0 243 M32 275 C11.15 273.73, -0.84 263.97, 0 243 M0 243 C-2.56 185.51, 0.43 129.38, 0 32 M0 243 C0.4 166.35, 0.84 88.59, 0 32 M0 32 C1.61 9.42, 12.56 -1.02, 32 0 M0 32 C-0.02 12.79, 10.77 -0.65, 32 0" stroke="#f08c00" stroke-width="4" fill="none">
</path>
</g>
<g transform="translate(1043.0277777777774 974.4999999999995) rotate(0 42.25 11.5)">
  <text x="42.25" y="18.400390625" font-family="Helvetica, Segoe UI Emoji" font-size="20px" fill="#f08c00" text-anchor="middle" style="white-space: pre;" direction="ltr" dominant-baseline="alphabetic">
    Paginator
  </text>
</g>
<g transform="translate(346.99999999999886 93.33333333333343) rotate(0 48.53333282470703 11.5)">
  <text x="0" y="18.400390625" font-family="Helvetica, Segoe UI Emoji" font-size="20px" fill="#1e1e1e" text-anchor="start" style="white-space: pre;" direction="ltr" dominant-baseline="alphabetic">
    **PAGES**
  </text>
</g>
<g transform="translate(936.9999999999991 42.222222222222285) rotate(0 86.61666870117188 11.5)">
  <text x="0" y="18.400390625" font-family="Helvetica, Segoe UI Emoji" font-size="20px" fill="#1e1e1e" text-anchor="start" style="white-space: pre;" direction="ltr" dominant-baseline="alphabetic">
    **COMPONENTS**
  </text>
</g>
<g transform="translate(2050.333333333331 10) rotate(0 41.88333511352539 11.5)">
  <text x="0" y="18.400390625" font-family="Helvetica, Segoe UI Emoji" font-size="20px" fill="#1e1e1e" text-anchor="start" style="white-space: pre;" direction="ltr" dominant-baseline="alphabetic">
    **TREE**
  </text>
</g>
<g stroke-linecap="round" transform="translate(795.8888888888878 1755.5555555555547) rotate(0 268.8888888888889 76.66666666666663)">
  <path d="M32 0 C183.01 1.73, 335.36 2.39, 505.78 0 M32 0 C164.13 -0.6, 295.94 -0.39, 505.78 0 M505.78 0 C525.7 1.63, 538.45 11.31, 537.78 32 M505.78 0 C524.99 -1.84, 538.06 12.34, 537.78 32 M537.78 32 C538 49.3, 536.64 69.31, 537.78 121.33 M537.78 32 C538.45 57.18, 537.92 81.16, 537.78 121.33 M537.78 121.33 C537.86 140.86, 529.01 153.87, 505.78 153.33 M537.78 121.33 C537.01 143.39, 525.91 151.96, 505.78 153.33 M505.78 153.33 C331.55 153.48, 155.36 152.34, 32 153.33 M505.78 153.33 C328.78 152.79, 152.31 153.09, 32 153.33 M32 153.33 C8.77 152.87, 0.22 143.26, 0 121.33 M32 153.33 C12.44 151.89, -2.23 143.89, 0 121.33 M0 121.33 C-1.72 103.1, 0.08 83.58, 0 32 M0 121.33 C0.15 86.7, -1.12 49.58, 0 32 M0 32 C-1.33 11.25, 10.86 1.1, 32 0 M0 32 C-1.65 9.2, 12.13 -2.09, 32 0" stroke="#1e1e1e" stroke-width="4" fill="none">
</path>
</g>
<g transform="translate(871.2944403754329 1786.2222222222215) rotate(0 193.48333740234375 46)">
  <text x="193.48333740234375" y="18.400390625" font-family="Helvetica, Segoe UI Emoji" font-size="20px" fill="#1e1e1e" text-anchor="middle" style="white-space: pre;" direction="ltr" dominant-baseline="alphabetic">
    {title}                                                {image}
  </text>
  <text x="193.48333740234375" y="41.400390625" font-family="Helvetica, Segoe UI Emoji" font-size="20px" fill="#1e1e1e" text-anchor="middle" style="white-space: pre;" direction="ltr" dominant-baseline="alphabetic">
    {topic} {votes}
  </text>
  <text x="193.48333740234375" y="64.400390625" font-family="Helvetica, Segoe UI Emoji" font-size="20px" fill="#1e1e1e" text-anchor="middle" style="white-space: pre;" direction="ltr" dominant-baseline="alphabetic">
    {author} {creation date}
  </text>
  <text x="193.48333740234375" y="87.400390625" font-family="Helvetica, Segoe UI Emoji" font-size="20px" fill="#1e1e1e" text-anchor="middle" style="white-space: pre;" direction="ltr" dominant-baseline="alphabetic">
</text>
</g>
<g transform="translate(965.888888888888 1687.7777777777771) rotate(0 71.05000305175781 11.5)">
  <text x="0" y="18.400390625" font-family="Helvetica, Segoe UI Emoji" font-size="20px" fill="#f08c00" text-anchor="start" style="white-space: pre;" direction="ltr" dominant-baseline="alphabetic">
    ArticleSummary
  </text>
</g>
<g stroke-linecap="round" transform="translate(773.6666666666655 2045.5555555555557) rotate(0 282.22222222222223 63.88888888888903)">
  <path d="M31.94 0 C227.17 -0.33, 423.85 0.04, 532.5 0 M31.94 0 C162.77 -0.31, 293.77 0.14, 532.5 0 M532.5 0 C553.93 -1.29, 564.42 9.42, 564.44 31.94 M532.5 0 C552.88 -0.12, 563.76 8.66, 564.44 31.94 M564.44 31.94 C563.01 49.99, 566.56 70.64, 564.44 95.83 M564.44 31.94 C563.51 56.03, 564.55 79.81, 564.44 95.83 M564.44 95.83 C562.64 115.85, 552.07 128.83, 532.5 127.78 M564.44 95.83 C562.23 118.65, 554.43 129.52, 532.5 127.78 M532.5 127.78 C415.04 126.51, 296.83 125.7, 31.94 127.78 M532.5 127.78 C408.78 128.27, 284.5 128.6, 31.94 127.78 M31.94 127.78 C11.77 126.77, -0.63 116.73, 0 95.83 M31.94 127.78 C11.86 127.07, -1.67 116.01, 0 95.83 M0 95.83 C1.81 73.74, 1.79 54.7, 0 31.94 M0 95.83 C0.44 80.94, -0.94 66.62, 0 31.94 M0 31.94 C-1.95 11.97, 9.59 1.59, 31.94 0 M0 31.94 C1.21 9.38, 10.92 -0.44, 31.94 0" stroke="#1e1e1e" stroke-width="4" fill="none">
</path>
</g>
<g transform="translate(797.972232394747 2097.9444444444443) rotate(0 257.9166564941407 11.5)">
  <text x="257.9166564941406" y="18.400390625" font-family="Helvetica, Segoe UI Emoji" font-size="20px" fill="#1e1e1e" text-anchor="middle" style="white-space: pre;" direction="ltr" dominant-baseline="alphabetic">
    {avatar} {username/username input} {Login/Logout button}
  </text>
</g>
<g transform="translate(1015.8888888888875 1974.4444444444443) rotate(0 24.383333206176758 11.5)">
  <text x="0" y="18.400390625" font-family="Helvetica, Segoe UI Emoji" font-size="20px" fill="#f08c00" text-anchor="start" style="white-space: pre;" direction="ltr" dominant-baseline="alphabetic">
    Login
  </text>
</g>
<g stroke-linecap="round" transform="translate(793.6666666666647 2286.666666666666) rotate(0 263.33333333333337 170.55555555555566)">
  <path d="M32 0 C127.59 1.3, 222.54 1.04, 494.67 0 M32 0 C202.9 0.97, 372.82 1.17, 494.67 0 M494.67 0 C514.22 1.31, 526.49 10.51, 526.67 32 M494.67 0 C516.95 -1.39, 525.15 9.28, 526.67 32 M526.67 32 C527.83 128.64, 527.47 226.94, 526.67 309.11 M526.67 32 C525.63 122.29, 525.07 212.85, 526.67 309.11 M526.67 309.11 C528.22 329.73, 517.88 342.92, 494.67 341.11 M526.67 309.11 C527.89 330.37, 513.76 343.38, 494.67 341.11 M494.67 341.11 C398.53 340.37, 300.81 340.54, 32 341.11 M494.67 341.11 C400.07 342.02, 304.56 342.25, 32 341.11 M32 341.11 C12.07 342.29, -0.4 330.74, 0 309.11 M32 341.11 C11.66 340.19, 1.93 329.03, 0 309.11 M0 309.11 C-0.62 238.33, -0.78 167.29, 0 32 M0 309.11 C1.81 238.53, 2.36 168.17, 0 32 M0 32 C-0.18 12.49, 11.36 -1.6, 32 0 M0 32 C0.31 10.9, 9.14 -0.38, 32 0" stroke="#1e1e1e" stroke-width="4" fill="none">
</path>
</g>
<g transform="translate(936.8499984741192 2376.7222222222217) rotate(0 120.15000152587896 80.5)">
  <text x="120.1500015258789" y="18.400390625" font-family="Helvetica, Segoe UI Emoji" font-size="20px" fill="#1e1e1e" text-anchor="middle" style="white-space: pre;" direction="ltr" dominant-baseline="alphabetic">
    {prev} {next}
  </text>
  <text x="120.1500015258789" y="41.400390625" font-family="Helvetica, Segoe UI Emoji" font-size="20px" fill="#1e1e1e" text-anchor="middle" style="white-space: pre;" direction="ltr" dominant-baseline="alphabetic">
</text>
<text x="120.1500015258789" y="64.400390625" font-family="Helvetica, Segoe UI Emoji" font-size="20px" fill="#1e1e1e" text-anchor="middle" style="white-space: pre;" direction="ltr" dominant-baseline="alphabetic">
</text>
<text x="120.1500015258789" y="87.400390625" font-family="Helvetica, Segoe UI Emoji" font-size="20px" fill="#1e1e1e" text-anchor="middle" style="white-space: pre;" direction="ltr" dominant-baseline="alphabetic">
  list of &lt;itemComponents&gt;'s
</text>
<text x="120.1500015258789" y="110.400390625" font-family="Helvetica, Segoe UI Emoji" font-size="20px" fill="#1e1e1e" text-anchor="middle" style="white-space: pre;" direction="ltr" dominant-baseline="alphabetic">
</text>
<text x="120.1500015258789" y="133.400390625" font-family="Helvetica, Segoe UI Emoji" font-size="20px" fill="#1e1e1e" text-anchor="middle" style="white-space: pre;" direction="ltr" dominant-baseline="alphabetic">
</text>
<text x="120.1500015258789" y="156.400390625" font-family="Helvetica, Segoe UI Emoji" font-size="20px" fill="#1e1e1e" text-anchor="middle" style="white-space: pre;" direction="ltr" dominant-baseline="alphabetic">
  {prev} {next}
</text>
</g>
<g transform="translate(1010.3333333333317 2223.333333333333) rotate(0 42.25 11.5)">
  <text x="0" y="18.400390625" font-family="Helvetica, Segoe UI Emoji" font-size="20px" fill="#f08c00" text-anchor="start" style="white-space: pre;" direction="ltr" dominant-baseline="alphabetic">
    Paginator
  </text>
</g>
<g transform="translate(1414.9765665542657 1783.666666666667) rotate(0 104.2456556679548 26.33333333333337)">
  <text x="0" y="21.06711390398554" font-family="Helvetica, Segoe UI Emoji" font-size="22.89855072463772px" fill="#1e1e1e" text-anchor="start" style="white-space: pre;" direction="ltr" dominant-baseline="alphabetic">
    clicking on an article
  </text>
  <text x="0" y="47.400447237318915" font-family="Helvetica, Segoe UI Emoji" font-size="22.89855072463772px" fill="#1e1e1e" text-anchor="start" style="white-space: pre;" direction="ltr" dominant-baseline="alphabetic">
    takes you to its page
  </text>
</g>
<g stroke-linecap="round">
  <g transform="translate(1341.4444444444412 1465.068531165825) rotate(0 -97.2222222222224 17.24464933063348)">
    <path d="M-0.94 0.27 C-33.05 5.95, -161.26 28.77, -193.65 34.33 M0.77 -0.63 C-31.34 5.21, -161.92 29.93, -194.18 35.79" stroke="#1e1e1e" stroke-width="4" fill="none">
  </path>
</g>
<g transform="translate(1341.4444444444412 1465.068531165825) rotate(0 -97.2222222222224 17.24464933063348)">
  <path d="M-172.64 23.09 C-176.83 27, -182.21 27.05, -194.18 35.79 M-172.64 23.09 C-177.65 26.7, -181.91 28.21, -194.18 35.79" stroke="#1e1e1e" stroke-width="4" fill="none">
</path>
</g>
<g transform="translate(1341.4444444444412 1465.068531165825) rotate(0 -97.2222222222224 17.24464933063348)">
  <path d="M-169.52 39.9 C-174.42 40.14, -180.48 36.55, -194.18 35.79 M-169.52 39.9 C-175.22 39.66, -180.21 37.29, -194.18 35.79" stroke="#1e1e1e" stroke-width="4" fill="none">
</path>
</g>
</g>
<mask>
</mask>
<g transform="translate(1433.6666666666626 851.1111111111096) rotate(0 154.48333740234375 11.5)">
  <text x="0" y="18.400390625" font-family="Helvetica, Segoe UI Emoji" font-size="20px" fill="#1e1e1e" text-anchor="start" style="white-space: pre;" direction="ltr" dominant-baseline="alphabetic">
    (taking ArticleSummary as a prop)
  </text>
</g>
<g stroke-linecap="round">
  <g transform="translate(1432.6666666666626 872.0288312084618) rotate(0 -59.722222222220466 27.95409306528876)">
    <path d="M0.26 0.11 C-19.54 9.37, -100.02 47.38, -119.86 56.55 M-1.06 -0.88 C-20.96 8.55, -101.34 45.28, -121.02 54.77" stroke="#1e1e1e" stroke-width="4" fill="none">
  </path>
</g>
<g transform="translate(1432.6666666666626 872.0288312084618) rotate(0 -59.722222222220466 27.95409306528876)">
  <path d="M-103.37 37.07 C-106.8 40.18, -109.66 45.77, -121.02 54.77 M-103.37 37.07 C-107.29 40.39, -111.15 46.03, -121.02 54.77" stroke="#1e1e1e" stroke-width="4" fill="none">
</path>
</g>
<g transform="translate(1432.6666666666626 872.0288312084618) rotate(0 -59.722222222220466 27.95409306528876)">
  <path d="M-96.12 52.56 C-101.22 52.39, -105.62 54.69, -121.02 54.77 M-96.12 52.56 C-101.8 52.24, -107.37 54.22, -121.02 54.77" stroke="#1e1e1e" stroke-width="4" fill="none">
</path>
</g>
</g>
<mask>
</mask>
<g stroke-linecap="round" transform="translate(793.6666666666622 2799.999999999998) rotate(0 265.55555555555554 163.8888888888889)">
  <path d="M32 0 C156.49 -1.17, 281.6 -2.38, 499.11 0 M32 0 C159.75 -1.61, 287.9 -1.02, 499.11 0 M499.11 0 C522.15 -1.81, 532.18 10.65, 531.11 32 M499.11 0 C521.87 1.1, 533.23 12.92, 531.11 32 M531.11 32 C532.09 107.38, 532.16 180.9, 531.11 295.78 M531.11 32 C530.12 121.35, 531.12 211.91, 531.11 295.78 M531.11 295.78 C531.73 316.26, 518.52 328.57, 499.11 327.78 M531.11 295.78 C533.12 317.7, 520.49 327.04, 499.11 327.78 M499.11 327.78 C336.32 328.54, 174.11 328.68, 32 327.78 M499.11 327.78 C380.58 328.56, 261.51 328.24, 32 327.78 M32 327.78 C10.44 328.67, 0.85 316.78, 0 295.78 M32 327.78 C8.82 326.49, -1.82 317.15, 0 295.78 M0 295.78 C-0.83 230, -3.11 164.59, 0 32 M0 295.78 C-1.72 203.73, -1.18 111.71, 0 32 M0 32 C0.79 11.17, 9.73 0.43, 32 0 M0 32 C-0.19 9.2, 12.45 -0.59, 32 0" stroke="#1e1e1e" stroke-width="4" fill="none">
</path>
</g>
<g transform="translate(875.305550469288 2871.888888888887) rotate(0 183.91667175292963 92)">
  <text x="183.9166717529297" y="18.400390625" font-family="Helvetica, Segoe UI Emoji" font-size="20px" fill="#f08c00" text-anchor="middle" style="white-space: pre;" direction="ltr" dominant-baseline="alphabetic">
    {author}
  </text>
  <text x="183.9166717529297" y="41.400390625" font-family="Helvetica, Segoe UI Emoji" font-size="20px" fill="#f08c00" text-anchor="middle" style="white-space: pre;" direction="ltr" dominant-baseline="alphabetic">
    {Comment body}
  </text>
  <text x="183.9166717529297" y="64.400390625" font-family="Helvetica, Segoe UI Emoji" font-size="20px" fill="#f08c00" text-anchor="middle" style="white-space: pre;" direction="ltr" dominant-baseline="alphabetic">
</text>
<text x="183.9166717529297" y="87.400390625" font-family="Helvetica, Segoe UI Emoji" font-size="20px" fill="#f08c00" text-anchor="middle" style="white-space: pre;" direction="ltr" dominant-baseline="alphabetic">
</text>
<text x="183.9166717529297" y="110.400390625" font-family="Helvetica, Segoe UI Emoji" font-size="20px" fill="#f08c00" text-anchor="middle" style="white-space: pre;" direction="ltr" dominant-baseline="alphabetic">
</text>
<text x="183.9166717529297" y="133.400390625" font-family="Helvetica, Segoe UI Emoji" font-size="20px" fill="#f08c00" text-anchor="middle" style="white-space: pre;" direction="ltr" dominant-baseline="alphabetic">
</text>
<text x="183.9166717529297" y="156.400390625" font-family="Helvetica, Segoe UI Emoji" font-size="20px" fill="#f08c00" text-anchor="middle" style="white-space: pre;" direction="ltr" dominant-baseline="alphabetic">
</text>
<text x="183.9166717529297" y="179.400390625" font-family="Helvetica, Segoe UI Emoji" font-size="20px" fill="#f08c00" text-anchor="middle" style="white-space: pre;" direction="ltr" dominant-baseline="alphabetic">
  {upvote/downvote buttons} {delete button}
</text>
</g>
<g transform="translate(955.8888888888844 2731.1111111111095) rotate(0 43.349998474121094 11.5)">
  <text x="0" y="18.400390625" font-family="Helvetica, Segoe UI Emoji" font-size="20px" fill="#f08c00" text-anchor="start" style="white-space: pre;" direction="ltr" dominant-baseline="alphabetic">
    Comment
  </text>
</g>
<g transform="translate(1438.1111111111063 2929.999999999999) rotate(0 192.0500030517578 23)">
  <text x="0" y="18.400390625" font-family="Helvetica, Segoe UI Emoji" font-size="20px" fill="#1e1e1e" text-anchor="start" style="white-space: pre;" direction="ltr" dominant-baseline="alphabetic">
    delete button only appears if current logged
  </text>
  <text x="0" y="41.400390625" font-family="Helvetica, Segoe UI Emoji" font-size="20px" fill="#1e1e1e" text-anchor="start" style="white-space: pre;" direction="ltr" dominant-baseline="alphabetic">
    in user posted this comment
  </text>
</g>
<g stroke-linecap="round">
  <g transform="translate(1430.3333333333285 2946.666666666666) rotate(0 -92.77777777777783 46.66666666666674)">
    <path d="M0.94 -0.09 C-29.9 15.64, -153.54 78.9, -184.68 94.29 M-0.03 -1.18 C-30.97 14.23, -154.04 76.98, -185.17 92.66" stroke="#1e1e1e" stroke-width="4" fill="none">
  </path>
</g>
<g transform="translate(1430.3333333333285 2946.666666666666) rotate(0 -92.77777777777783 46.66666666666674)">
  <path d="M-168.09 74.41 C-173.86 82, -177.73 85.97, -185.17 92.66 M-168.09 74.41 C-172.31 77.54, -174.24 81.12, -185.17 92.66" stroke="#1e1e1e" stroke-width="4" fill="none">
</path>
</g>
<g transform="translate(1430.3333333333285 2946.666666666666) rotate(0 -92.77777777777783 46.66666666666674)">
  <path d="M-160.35 89.66 C-168.66 92.3, -175.06 91.27, -185.17 92.66 M-160.35 89.66 C-166.27 89.68, -169.79 90.11, -185.17 92.66" stroke="#1e1e1e" stroke-width="4" fill="none">
</path>
</g>
</g>
<mask>
</mask>
<g transform="translate(2098.111111111103 108.8888888888813) rotate(0 17.799999237060547 11.5)">
  <text x="0" y="18.400390625" font-family="Helvetica, Segoe UI Emoji" font-size="20px" fill="#f08c00" text-anchor="start" style="white-space: pre;" direction="ltr" dominant-baseline="alphabetic">
    App
  </text>
</g>
<g transform="translate(2080.3333333333253 434.4444444444369) rotate(0 42.25 11.5)">
  <text x="0" y="18.400390625" font-family="Helvetica, Segoe UI Emoji" font-size="20px" fill="#f08c00" text-anchor="start" style="white-space: pre;" direction="ltr" dominant-baseline="alphabetic">
    Paginator
  </text>
</g>
<g transform="translate(2154.7777777777706 589.9999999999923) rotate(0 43.349998474121094 11.5)">
  <text x="0" y="18.400390625" font-family="Helvetica, Segoe UI Emoji" font-size="20px" fill="#f08c00" text-anchor="start" style="white-space: pre;" direction="ltr" dominant-baseline="alphabetic">
    Comment
  </text>
</g>
<g transform="translate(2251.4444444444366 294.44444444443684) rotate(0 28.016666412353516 11.5)">
  <text x="0" y="18.400390625" font-family="Helvetica, Segoe UI Emoji" font-size="20px" fill="#f08c00" text-anchor="start" style="white-space: pre;" direction="ltr" dominant-baseline="alphabetic">
    Article
  </text>
</g>
<g transform="translate(2451.444444444438 287.7777777777701) rotate(0 32.733333587646484 11.5)">
  <text x="0" y="18.400390625" font-family="Helvetica, Segoe UI Emoji" font-size="20px" fill="#f08c00" text-anchor="start" style="white-space: pre;" direction="ltr" dominant-baseline="alphabetic">
    Header
  </text>
</g>
<g transform="translate(2488.111111111104 449.9999999999924) rotate(0 24.383333206176758 11.5)">
  <text x="0" y="18.400390625" font-family="Helvetica, Segoe UI Emoji" font-size="20px" fill="#f08c00" text-anchor="start" style="white-space: pre;" direction="ltr" dominant-baseline="alphabetic">
    Login
  </text>
</g>
<g transform="translate(2021.444444444438 304.4444444444368) rotate(0 44.06666564941406 11.5)">
  <text x="0" y="18.400390625" font-family="Helvetica, Segoe UI Emoji" font-size="20px" fill="#f08c00" text-anchor="start" style="white-space: pre;" direction="ltr" dominant-baseline="alphabetic">
    AllArticles
  </text>
</g>
<g transform="translate(1881.4444444444377 446.666666666659) rotate(0 47.099998474121094 11.5)">
  <text x="0" y="18.400390625" font-family="Helvetica, Segoe UI Emoji" font-size="20px" fill="#f08c00" text-anchor="start" style="white-space: pre;" direction="ltr" dominant-baseline="alphabetic">
    SearchBar
  </text>
</g>
<g transform="translate(1920.3333333333258 597.7777777777686) rotate(0 71.05000305175781 11.5)">
  <text x="0" y="18.400390625" font-family="Helvetica, Segoe UI Emoji" font-size="20px" fill="#f08c00" text-anchor="start" style="white-space: pre;" direction="ltr" dominant-baseline="alphabetic">
    ArticleSummary
  </text>
</g>
<g stroke-linecap="round">
  <g transform="translate(2101.770920552233 139.99999999999085) rotate(0 -23.104253885574735 81.72222222222297)">
    <path d="M0 0 C0.5 14.81, 11.21 68.89, 3.01 88.89 C-5.2 108.89, -42.86 107.57, -49.22 120 C-55.57 132.43, -37.45 156.2, -35.1 163.44 M0 0 C0.5 14.81, 11.21 68.89, 3.01 88.89 C-5.2 108.89, -42.86 107.57, -49.22 120 C-55.57 132.43, -37.45 156.2, -35.1 163.44" stroke="#1e1e1e" stroke-width="4" fill="none">
  </path>
</g>
<g transform="translate(2101.770920552233 139.99999999999085) rotate(0 -23.104253885574735 81.72222222222297)">
  <path d="M-51.89 147.97 C-48.42 151.16, -44.95 154.36, -35.1 163.44 M-51.89 147.97 C-48.25 151.32, -44.61 154.67, -35.1 163.44" stroke="#1e1e1e" stroke-width="4" fill="none">
</path>
</g>
<g transform="translate(2101.770920552233 139.99999999999085) rotate(0 -23.104253885574735 81.72222222222297)">
  <path d="M-38.01 140.79 C-37.41 145.47, -36.81 150.15, -35.1 163.44 M-38.01 140.79 C-37.38 145.7, -36.75 150.61, -35.1 163.44" stroke="#1e1e1e" stroke-width="4" fill="none">
</path>
</g>
</g>
<mask>
</mask>
<g stroke-linecap="round">
  <g transform="translate(2103.6514564658614 137.77777777776856) rotate(0 91.40058045538058 71.66666666666663)">
    <path d="M0 0 C2.97 12.96, 8.16 59.07, 17.79 77.78 C27.43 96.48, 32.61 110.56, 57.79 112.22 C82.98 113.89, 148.07 82.59, 168.9 87.78 C189.74 92.96, 180.48 134.07, 182.8 143.33 M0 0 C2.97 12.96, 8.16 59.07, 17.79 77.78 C27.43 96.48, 32.61 110.56, 57.79 112.22 C82.98 113.89, 148.07 82.59, 168.9 87.78 C189.74 92.96, 180.48 134.07, 182.8 143.33" stroke="#1e1e1e" stroke-width="4" fill="none">
  </path>
</g>
<g transform="translate(2103.6514564658614 137.77777777776856) rotate(0 91.40058045538058 71.66666666666663)">
  <path d="M174.12 119.89 C177.52 129.07, 180.92 138.25, 182.8 143.33 M174.12 119.89 C176.56 126.48, 179 133.07, 182.8 143.33" stroke="#1e1e1e" stroke-width="4" fill="none">
</path>
</g>
<g transform="translate(2103.6514564658614 137.77777777776856) rotate(0 91.40058045538058 71.66666666666663)">
  <path d="M191.22 119.79 C187.92 129.01, 184.63 138.23, 182.8 143.33 M191.22 119.79 C188.85 126.41, 186.48 133.03, 182.8 143.33" stroke="#1e1e1e" stroke-width="4" fill="none">
</path>
</g>
</g>
<mask>
</mask>
<g stroke-linecap="round">
  <g transform="translate(2100.8867542064204 138.88888888887965) rotate(0 187.50106734123005 67.77777777777777)">
    <path d="M0 0 C12.5 12.41, 40.46 66.11, 75 74.44 C109.54 82.78, 160.74 55.74, 207.22 50 C253.71 44.26, 325.93 25.74, 353.89 40 C381.85 54.26, 371.48 119.63, 375 135.56 M0 0 C12.5 12.41, 40.46 66.11, 75 74.44 C109.54 82.78, 160.74 55.74, 207.22 50 C253.71 44.26, 325.93 25.74, 353.89 40 C381.85 54.26, 371.48 119.63, 375 135.56" stroke="#1e1e1e" stroke-width="4" fill="none">
  </path>
</g>
<g transform="translate(2100.8867542064204 138.88888888887965) rotate(0 187.50106734123005 67.77777777777777)">
  <path d="M365.68 112.36 C368.31 118.9, 370.93 125.43, 375 135.56 M365.68 112.36 C368.91 120.39, 372.13 128.42, 375 135.56" stroke="#1e1e1e" stroke-width="4" fill="none">
</path>
</g>
<g transform="translate(2100.8867542064204 138.88888888887965) rotate(0 187.50106734123005 67.77777777777777)">
  <path d="M382.77 111.79 C380.58 118.49, 378.39 125.18, 375 135.56 M382.77 111.79 C380.08 120.02, 377.39 128.25, 375 135.56" stroke="#1e1e1e" stroke-width="4" fill="none">
</path>
</g>
</g>
<mask>
</mask>
<g stroke-linecap="round">
  <g transform="translate(2048.111111111102 331.1111111111019) rotate(0 -63.33333333333326 53.888888888888886)">
    <path d="M0 0 C-5.37 7.22, -17.04 34.63, -32.22 43.33 C-47.41 52.04, -75.93 50.93, -91.11 52.22 C-106.3 53.52, -117.41 41.85, -123.33 51.11 C-129.26 60.37, -126.11 98.33, -126.67 107.78 M0 0 C-5.37 7.22, -17.04 34.63, -32.22 43.33 C-47.41 52.04, -75.93 50.93, -91.11 52.22 C-106.3 53.52, -117.41 41.85, -123.33 51.11 C-129.26 60.37, -126.11 98.33, -126.67 107.78" stroke="#1e1e1e" stroke-width="4" fill="none">
  </path>
</g>
<g transform="translate(2048.111111111102 331.1111111111019) rotate(0 -63.33333333333326 53.888888888888886)">
  <path d="M-135.47 84.38 C-133.38 89.91, -131.3 95.45, -126.67 107.78 M-135.47 84.38 C-133.54 89.51, -131.61 94.64, -126.67 107.78" stroke="#1e1e1e" stroke-width="4" fill="none">
</path>
</g>
<g transform="translate(2048.111111111102 331.1111111111019) rotate(0 -63.33333333333326 53.888888888888886)">
  <path d="M-118.37 84.2 C-120.33 89.77, -122.29 95.35, -126.67 107.78 M-118.37 84.2 C-120.19 89.37, -122.01 94.54, -126.67 107.78" stroke="#1e1e1e" stroke-width="4" fill="none">
</path>
</g>
</g>
<mask>
</mask>
<g stroke-linecap="round">
  <g transform="translate(2044.7777777777692 329.99999999999073) rotate(0 37.77777777777783 47.22222222222223)">
    <path d="M0 0 C0.19 7.78, -10.37 39.81, 1.11 46.67 C12.59 53.52, 56.48 33.15, 68.89 41.11 C81.3 49.07, 74.44 85.56, 75.56 94.44 M0 0 C0.19 7.78, -10.37 39.81, 1.11 46.67 C12.59 53.52, 56.48 33.15, 68.89 41.11 C81.3 49.07, 74.44 85.56, 75.56 94.44" stroke="#1e1e1e" stroke-width="4" fill="none">
  </path>
</g>
<g transform="translate(2044.7777777777692 329.99999999999073) rotate(0 37.77777777777783 47.22222222222223)">
  <path d="M67.71 70.71 C70.27 78.45, 72.83 86.2, 75.56 94.44 M67.71 70.71 C70.78 79.99, 73.85 89.27, 75.56 94.44" stroke="#1e1e1e" stroke-width="4" fill="none">
</path>
</g>
<g transform="translate(2044.7777777777692 329.99999999999073) rotate(0 37.77777777777783 47.22222222222223)">
  <path d="M84.8 71.22 C81.78 78.8, 78.77 86.38, 75.56 94.44 M84.8 71.22 C81.19 80.3, 77.57 89.38, 75.56 94.44" stroke="#1e1e1e" stroke-width="4" fill="none">
</path>
</g>
</g>
<mask>
</mask>
<g stroke-linecap="round">
  <g transform="translate(2122.555555555547 462.22222222221296) rotate(0 -56.111111111111086 62.77777777777777)">
    <path d="M0 0 C-4.07 7.78, -11.3 39.07, -24.44 46.67 C-37.59 54.26, -64.26 43.33, -78.89 45.56 C-93.52 47.78, -107.96 46.67, -112.22 60 C-116.48 73.33, -105.74 114.63, -104.44 125.56 M0 0 C-4.07 7.78, -11.3 39.07, -24.44 46.67 C-37.59 54.26, -64.26 43.33, -78.89 45.56 C-93.52 47.78, -107.96 46.67, -112.22 60 C-116.48 73.33, -105.74 114.63, -104.44 125.56" stroke="#1e1e1e" stroke-width="4" fill="none">
  </path>
</g>
<g transform="translate(2122.555555555547 462.22222222221296) rotate(0 -56.111111111111086 62.77777777777777)">
  <path d="M-117.14 104.02 C-113.08 110.9, -109.03 117.79, -104.44 125.56 M-117.14 104.02 C-113.85 109.6, -110.57 115.17, -104.44 125.56" stroke="#1e1e1e" stroke-width="4" fill="none">
</path>
</g>
<g transform="translate(2122.555555555547 462.22222222221296) rotate(0 -56.111111111111086 62.77777777777777)">
  <path d="M-100.33 100.9 C-101.64 108.78, -102.96 116.66, -104.44 125.56 M-100.33 100.9 C-101.39 107.28, -102.46 113.67, -104.44 125.56" stroke="#1e1e1e" stroke-width="4" fill="none">
</path>
</g>
</g>
<mask>
</mask>
<g stroke-linecap="round">
  <g transform="translate(2123.666666666658 461.1111111111018) rotate(0 56.11111111111131 67.22222222222226)">
    <path d="M0 0 C2.59 8.15, 7.59 36.67, 15.56 48.89 C23.52 61.11, 31.67 68.7, 47.78 73.33 C63.89 77.96, 109.63 66.48, 112.22 76.67 C114.81 86.85, 71.48 124.81, 63.33 134.44 M0 0 C2.59 8.15, 7.59 36.67, 15.56 48.89 C23.52 61.11, 31.67 68.7, 47.78 73.33 C63.89 77.96, 109.63 66.48, 112.22 76.67 C114.81 86.85, 71.48 124.81, 63.33 134.44" stroke="#1e1e1e" stroke-width="4" fill="none">
  </path>
</g>
<g transform="translate(2123.666666666658 461.1111111111018) rotate(0 56.11111111111131 67.22222222222226)">
  <path d="M73.78 111.73 C71.15 117.44, 68.52 123.15, 63.33 134.44 M73.78 111.73 C70.12 119.68, 66.47 127.62, 63.33 134.44" stroke="#1e1e1e" stroke-width="4" fill="none">
</path>
</g>
<g transform="translate(2123.666666666658 461.1111111111018) rotate(0 56.11111111111131 67.22222222222226)">
  <path d="M85.93 123.76 C80.25 126.44, 74.57 129.13, 63.33 134.44 M85.93 123.76 C78.03 127.5, 70.12 131.24, 63.33 134.44" stroke="#1e1e1e" stroke-width="4" fill="none">
</path>
</g>
</g>
<mask>
</mask>
<g stroke-linecap="round">
  <g transform="translate(2485.8888888888805 312.22222222221296) rotate(0 8.888888888888687 62.77777777777777)">
    <path d="M0 0 C2.96 20.93, 14.81 104.63, 17.78 125.56 M0 0 C2.96 20.93, 14.81 104.63, 17.78 125.56" stroke="#1e1e1e" stroke-width="4" fill="none">
  </path>
</g>
<g transform="translate(2485.8888888888805 312.22222222221296) rotate(0 8.888888888888687 62.77777777777777)">
  <path d="M6.02 103.49 C10.43 111.76, 14.83 120.03, 17.78 125.56 M6.02 103.49 C8.92 108.93, 11.81 114.36, 17.78 125.56" stroke="#1e1e1e" stroke-width="4" fill="none">
</path>
</g>
<g transform="translate(2485.8888888888805 312.22222222221296) rotate(0 8.888888888888687 62.77777777777777)">
  <path d="M22.95 101.1 C21.01 110.26, 19.07 119.43, 17.78 125.56 M22.95 101.1 C21.68 107.12, 20.4 113.15, 17.78 125.56" stroke="#1e1e1e" stroke-width="4" fill="none">
</path>
</g>
</g>
<mask>
</mask>
<g transform="translate(2160.3333333333244 99.99999999999075) rotate(0 148.98333740234375 23)">
  <text x="0" y="18.400390625" font-family="Helvetica, Segoe UI Emoji" font-size="20px" fill="#9c36b5" text-anchor="start" style="white-space: pre;" direction="ltr" dominant-baseline="alphabetic">
    [user, setUser]
  </text>
  <text x="0" y="41.400390625" font-family="Helvetica, Segoe UI Emoji" font-size="20px" fill="#9c36b5" text-anchor="start" style="white-space: pre;" direction="ltr" dominant-baseline="alphabetic">
    [responseError, setReponseError]
  </text>
</g>
<g transform="translate(2280.333333333325 574.4444444444351) rotate(0 19.46666717529297 11.5)">
  <text x="0" y="18.400390625" font-family="Helvetica, Segoe UI Emoji" font-size="20px" fill="#9c36b5" text-anchor="start" style="white-space: pre;" direction="ltr" dominant-baseline="alphabetic">
    user
  </text>
</g>
<g transform="translate(2552.555555555547 419.99999999999073) rotate(0 58.70000076293945 11.5)">
  <text x="0" y="18.400390625" font-family="Helvetica, Segoe UI Emoji" font-size="20px" fill="#9c36b5" text-anchor="start" style="white-space: pre;" direction="ltr" dominant-baseline="alphabetic">
    user, setUser
  </text>
</g>
<g transform="translate(2182.555555555547 437.7777777777685) rotate(0 69.53333282470703 23)">
  <text x="0" y="18.400390625" font-family="Helvetica, Segoe UI Emoji" font-size="20px" fill="#9c36b5" text-anchor="start" style="white-space: pre;" direction="ltr" dominant-baseline="alphabetic">
    [item, setItems]
  </text>
  <text x="0" y="41.400390625" font-family="Helvetica, Segoe UI Emoji" font-size="20px" fill="#9c36b5" text-anchor="start" style="white-space: pre;" direction="ltr" dominant-baseline="alphabetic">
    [page, setPage]
  </text>
</g>
<g transform="translate(1739.222222222214 88.88888888887959) rotate(0 142.18333435058594 11.5)">
  <text x="0" y="18.400390625" font-family="Helvetica, Segoe UI Emoji" font-size="20px" fill="#9c36b5" text-anchor="start" style="white-space: pre;" direction="ltr" dominant-baseline="alphabetic">
    [] denote the declaration of state
  </text>
</g>
<g transform="translate(1609.2222222222142 596.6666666666572) rotate(0 142.96665954589844 11.5)">
  <text x="0" y="18.400390625" font-family="Helvetica, Segoe UI Emoji" font-size="20px" fill="#1e1e1e" text-anchor="start" style="white-space: pre;" direction="ltr" dominant-baseline="alphabetic">
    links to Article with relevant prop
  </text>
</g>
<g stroke-linecap="round">
  <g transform="translate(2274.77777777777 315.55555555554645) rotate(0 -70.55555555555543 60.55555555555553)">
    <path d="M0 0 C-2.41 6.67, 6.11 31.85, -14.44 40 C-35 48.15, -102.22 35.37, -123.33 48.89 C-144.44 62.41, -138.15 109.07, -141.11 121.11 M0 0 C-2.41 6.67, 6.11 31.85, -14.44 40 C-35 48.15, -102.22 35.37, -123.33 48.89 C-144.44 62.41, -138.15 109.07, -141.11 121.11" stroke="#1e1e1e" stroke-width="4" fill="none">
  </path>
</g>
<g transform="translate(2274.77777777777 315.55555555554645) rotate(0 -70.55555555555543 60.55555555555553)">
  <path d="M-148.17 97.13 C-145.52 106.12, -142.88 115.1, -141.11 121.11 M-148.17 97.13 C-146.39 103.18, -144.61 109.23, -141.11 121.11" stroke="#1e1e1e" stroke-width="4" fill="none">
</path>
</g>
<g transform="translate(2274.77777777777 315.55555555554645) rotate(0 -70.55555555555543 60.55555555555553)">
  <path d="M-131.1 98.2 C-134.85 106.79, -138.6 115.37, -141.11 121.11 M-131.1 98.2 C-133.63 103.98, -136.15 109.76, -141.11 121.11" stroke="#1e1e1e" stroke-width="4" fill="none">
</path>
</g>
</g>
<mask>
</mask>
<g transform="translate(1708.1111111111036 512.2222222222132) rotate(0 41.04999923706055 11.5)">
  <text x="0" y="18.400390625" font-family="Helvetica, Segoe UI Emoji" font-size="20px" fill="#f08c00" text-anchor="start" style="white-space: pre;" direction="ltr" dominant-baseline="alphabetic">
    ErrorMsg
  </text>
</g>
<g transform="translate(2180.3333333333258 416.66666666665753) rotate(0 88.46666717529297 11.5)">
  <text x="0" y="18.400390625" font-family="Helvetica, Segoe UI Emoji" font-size="20px" fill="#1e1e1e" text-anchor="start" style="white-space: pre;" direction="ltr" dominant-baseline="alphabetic">
    this makes requests
  </text>
</g>
<g stroke-linecap="round">
  <g transform="translate(2099.2222222222144 137.77777777776873) rotate(0 -177.77777777777771 182.77777777777774)">
    <path d="M0 0 C-7.78 12.59, -6.3 59.44, -46.67 75.56 C-87.04 91.67, -198.7 73.52, -242.22 96.67 C-285.74 119.81, -288.89 169.63, -307.78 214.44 C-326.67 259.26, -347.59 340.37, -355.56 365.56 M0 0 C-7.78 12.59, -6.3 59.44, -46.67 75.56 C-87.04 91.67, -198.7 73.52, -242.22 96.67 C-285.74 119.81, -288.89 169.63, -307.78 214.44 C-326.67 259.26, -347.59 340.37, -355.56 365.56" stroke="#1e1e1e" stroke-width="4" fill="none">
  </path>
</g>
<g transform="translate(2099.2222222222144 137.77777777776873) rotate(0 -177.77777777777771 182.77777777777774)">
  <path d="M-357.2 340.61 C-356.73 347.86, -356.25 355.1, -355.56 365.56 M-357.2 340.61 C-356.8 346.65, -356.41 352.7, -355.56 365.56" stroke="#1e1e1e" stroke-width="4" fill="none">
</path>
</g>
<g transform="translate(2099.2222222222144 137.77777777776873) rotate(0 -177.77777777777771 182.77777777777774)">
  <path d="M-340.78 345.39 C-345.08 351.25, -349.37 357.11, -355.56 365.56 M-340.78 345.39 C-344.36 350.27, -347.94 355.16, -355.56 365.56" stroke="#1e1e1e" stroke-width="4" fill="none">
</path>
</g>
</g>
<mask>
</mask>
<g stroke-linecap="round">
  <g transform="translate(2096.9999999999927 458.8888888888798) rotate(0 -162.77777777777771 21.66666666666663)">
    <path d="M0 0 C-25 7.22, -104.07 42.04, -150 43.33 C-195.93 44.63, -246.3 8.33, -275.56 7.78 C-304.81 7.22, -317.22 34.63, -325.56 40 M0 0 C-25 7.22, -104.07 42.04, -150 43.33 C-195.93 44.63, -246.3 8.33, -275.56 7.78 C-304.81 7.22, -317.22 34.63, -325.56 40" stroke="#1e1e1e" stroke-width="4" fill="none">
  </path>
</g>
<g transform="translate(2096.9999999999927 458.8888888888798) rotate(0 -162.77777777777771 21.66666666666663)">
  <path d="M-315.6 17.07 C-319.13 25.2, -322.66 33.32, -325.56 40 M-315.6 17.07 C-318.09 22.82, -320.59 28.56, -325.56 40" stroke="#1e1e1e" stroke-width="4" fill="none">
</path>
</g>
<g transform="translate(2096.9999999999927 458.8888888888798) rotate(0 -162.77777777777771 21.66666666666663)">
  <path d="M-303.19 28.84 C-311.11 32.79, -319.04 36.75, -325.56 40 M-303.19 28.84 C-308.79 31.63, -314.4 34.43, -325.56 40" stroke="#1e1e1e" stroke-width="4" fill="none">
</path>
</g>
</g>
<mask>
</mask>
<g transform="translate(1803.6666666666592 329.9999999999909) rotate(0 111.58333587646484 11.5)">
  <text x="0" y="18.400390625" font-family="Helvetica, Segoe UI Emoji" font-size="20px" fill="#9c36b5" text-anchor="start" style="white-space: pre;" direction="ltr" dominant-baseline="alphabetic">
    requestUrl,setRequestUrl
  </text>
</g>
<g stroke-linecap="round" transform="translate(860.3333333333259 3308.8888888888805) rotate(0 173.33333333333331 216.66666666666674)">
  <path d="M32 0 C103.53 0, 175.06 0, 314.67 0 M32 0 C101.67 0, 171.34 0, 314.67 0 M314.67 0 C336 0, 346.67 10.67, 346.67 32 M314.67 0 C336 0, 346.67 10.67, 346.67 32 M346.67 32 C346.67 147.12, 346.67 262.25, 346.67 401.33 M346.67 32 C346.67 166.11, 346.67 300.21, 346.67 401.33 M346.67 401.33 C346.67 422.67, 336 433.33, 314.67 433.33 M346.67 401.33 C346.67 422.67, 336 433.33, 314.67 433.33 M314.67 433.33 C245.42 433.33, 176.17 433.33, 32 433.33 M314.67 433.33 C234.64 433.33, 154.61 433.33, 32 433.33 M32 433.33 C10.67 433.33, 0 422.67, 0 401.33 M32 433.33 C10.67 433.33, 0 422.67, 0 401.33 M0 401.33 C0 315.92, 0 230.52, 0 32 M0 401.33 C0 319.36, 0 237.38, 0 32 M0 32 C0 10.67, 10.67 0, 32 0 M0 32 C0 10.67, 10.67 0, 32 0" stroke="#1e1e1e" stroke-width="4" fill="none">
</path>
</g>
<g transform="translate(975.9499994913663 3491.0555555555466) rotate(0 57.71666717529297 34.5)">
  <text x="57.71666717529297" y="18.400390625" font-family="Helvetica, Segoe UI Emoji" font-size="20px" fill="#f08c00" text-anchor="middle" style="white-space: pre;" direction="ltr" dominant-baseline="alphabetic">
    {status code}
  </text>
  <text x="57.71666717529297" y="41.400390625" font-family="Helvetica, Segoe UI Emoji" font-size="20px" fill="#f08c00" text-anchor="middle" style="white-space: pre;" direction="ltr" dominant-baseline="alphabetic">
</text>
<text x="57.71666717529297" y="64.400390625" font-family="Helvetica, Segoe UI Emoji" font-size="20px" fill="#f08c00" text-anchor="middle" style="white-space: pre;" direction="ltr" dominant-baseline="alphabetic">
  {message}
</text>
</g>
<g transform="translate(971.4444444444371 3229.9999999999927) rotate(0 41.04999923706055 11.5)">
  <text x="0" y="18.400390625" font-family="Helvetica, Segoe UI Emoji" font-size="20px" fill="#f08c00" text-anchor="start" style="white-space: pre;" direction="ltr" dominant-baseline="alphabetic">
    ErrorMsg
  </text>
</g>
</svg>
